<?xml version="1.0" standalone="no"?>
<!DOCTYPE svg PUBLIC "-//W3C//DTD SVG 20010904//EN"
 "http://www.w3.org/TR/2001/REC-SVG-20010904/DTD/svg10.dtd">
<svg version="1.0" xmlns="http://www.w3.org/2000/svg"
 width="914.000000pt" height="914.000000pt" viewBox="0 0 914.000000 914.000000"
 preserveAspectRatio="xMidYMid meet">
<metadata>
Created by potrace 1.11, written by Peter Selinger 2001-2013
</metadata>
<g transform="translate(0.000000,914.000000) scale(0.100000,-0.100000)"
fill="#000000" stroke="none">
<path d="M7150 9130 c0 -3 -18 -5 -41 -4 -64 1 -164 -21 -161 -35 1 -7 -2 -10
-8 -6 -6 3 -7 11 -4 17 4 6 -1 6 -14 -1 -12 -6 -25 -10 -29 -9 -4 1 -28 -4
-53 -11 -127 -37 -147 -43 -165 -51 -11 -5 -45 -19 -75 -30 -73 -28 -207 -101
-300 -163 -307 -206 -550 -510 -688 -861 -44 -112 -96 -303 -107 -397 -3 -30
-8 -61 -10 -69 -3 -8 -7 -71 -10 -140 -3 -69 -7 -172 -10 -230 -2 -58 -7 -181
-10 -275 -4 -93 -8 -208 -10 -254 -2 -46 -7 -172 -11 -280 -3 -108 -8 -227 -9
-266 -2 -38 -3 -98 -4 -133 l-1 -63 -72 6 c-40 2 -100 7 -133 9 -33 3 -118 8
-190 12 -71 3 -155 8 -185 10 -123 6 -310 4 -385 -6 -172 -22 -387 -89 -535
-167 -239 -127 -431 -328 -548 -573 -34 -72 -116 -289 -112 -298 1 -1 -4 -26
-10 -55 -27 -134 -32 -198 -30 -427 0 -113 2 -320 3 -460 l2 -255 -35 -2 c-19
-1 -82 -4 -140 -7 -389 -21 -611 -31 -965 -41 -432 -12 -527 -21 -711 -70
-534 -141 -960 -509 -1188 -1025 -29 -68 -56 -161 -50 -173 4 -7 3 -9 -1 -4
-9 8 -49 -132 -40 -141 2 -3 1 -10 -4 -16 -5 -6 -12 -28 -15 -50 -4 -21 -9
-42 -11 -46 -3 -5 -1 -11 5 -15 5 -3 10 -11 10 -16 0 -6 -3 -8 -8 -5 -4 2 -8
-13 -9 -35 -2 -44 10 -57 35 -37 15 12 16 11 3 -5 -9 -12 -21 -15 -35 -11 -19
6 -20 5 -6 -11 8 -11 10 -16 4 -12 -7 4 -10 -32 -8 -116 2 -148 1 -140 17
-134 8 3 14 -1 14 -8 0 -7 -6 -11 -14 -8 -8 3 -13 -2 -13 -13 0 -16 2 -17 10
-4 9 13 10 13 10 0 0 -9 -6 -22 -12 -29 -10 -11 -10 -13 -1 -7 7 4 13 3 13 -3
0 -5 -3 -11 -7 -14 -5 -2 -3 -2 4 -1 17 4 25 -26 8 -33 -10 -3 -12 -9 -6 -17
5 -6 7 -23 5 -39 -3 -29 2 -32 26 -17 11 7 12 10 2 10 -9 0 -11 7 -7 20 4 11
2 20 -4 20 -6 0 -11 5 -11 11 0 5 4 8 9 4 6 -3 8 4 4 17 -3 13 -6 56 -6 95 -1
40 -5 73 -10 73 -4 0 -5 6 0 13 4 6 8 31 9 54 0 24 3 46 7 50 4 3 -4 18 -17
32 -21 22 -22 28 -10 39 12 11 13 9 11 -9 -1 -12 3 -23 8 -25 6 -2 11 11 12
28 4 47 8 76 22 141 7 32 10 65 7 73 -4 9 -2 12 5 8 7 -4 10 -1 7 7 -3 8 -10
13 -15 12 -5 -1 -10 5 -10 12 0 11 4 12 13 4 15 -12 18 -8 37 56 8 28 22 67
31 88 9 21 14 43 10 50 -4 7 -4 9 1 5 7 -7 53 79 58 107 1 6 4 12 7 15 3 3 24
37 47 75 136 231 324 426 544 564 159 99 412 196 569 218 19 3 55 9 80 14 41
8 525 5 790 -6 257 -9 420 -16 480 -20 36 -2 126 -6 200 -10 74 -4 151 -9 170
-10 19 -2 45 -3 57 -4 21 -1 22 -4 23 -163 1 -90 3 -219 5 -288 5 -223 15
-570 22 -790 10 -338 6 -528 -11 -589 -3 -9 -7 -34 -11 -56 -23 -156 -120
-394 -228 -555 -137 -205 -300 -360 -514 -487 -49 -29 -93 -56 -98 -60 -6 -4
-17 -9 -25 -11 -12 -3 -61 -23 -125 -52 -11 -5 -49 -18 -84 -30 -36 -11 -68
-26 -73 -33 -6 -9 -8 -9 -8 1 0 7 -5 10 -11 6 -7 -4 -26 -9 -43 -11 -17 -2
-32 -7 -33 -11 -2 -4 -21 -7 -43 -6 -23 0 -40 -4 -39 -10 3 -26 -2 -37 -13
-30 -8 5 -9 2 -4 -11 6 -15 4 -16 -9 -5 -15 12 -14 15 6 25 17 9 19 14 8 20
-7 5 -14 4 -17 -3 -2 -7 -8 -12 -13 -12 -6 0 -8 4 -5 8 3 5 -1 9 -9 9 -8 0
-12 -4 -10 -7 3 -4 -6 -8 -20 -8 -16 0 -22 5 -18 12 5 8 3 8 -8 0 -8 -5 -37
-10 -66 -10 -29 1 -49 -3 -45 -8 3 -6 -3 -6 -14 -2 -40 16 -53 15 -47 -2 6
-14 4 -15 -9 -5 -8 7 -18 10 -21 6 -4 -3 -7 -2 -7 3 0 5 -14 10 -31 10 -20 1
-27 -1 -18 -6 7 -5 16 -7 20 -4 4 2 9 -3 12 -10 4 -11 0 -13 -16 -10 -12 3
-28 6 -35 6 -7 1 -10 8 -7 17 3 8 3 12 -1 8 -4 -4 -12 -3 -19 3 -8 6 -11 2
-11 -17 1 -14 -5 -28 -13 -31 -9 -3 -11 0 -6 9 6 11 5 12 -6 1 -7 -6 -18 -12
-24 -12 -5 1 1 10 14 21 24 20 23 31 -5 35 -12 2 -13 -1 -3 -12 8 -9 8 -14 1
-14 -6 0 -15 7 -20 16 -8 14 -13 14 -28 5 -13 -9 -14 -11 -3 -8 17 6 39 -10
39 -27 0 -6 -5 -5 -12 2 -7 7 -16 12 -22 12 -5 0 4 -12 22 -26 17 -15 29 -30
26 -35 -3 -5 0 -9 6 -9 7 0 9 8 4 22 -6 20 -5 21 9 9 9 -7 15 -17 12 -21 -7
-11 16 -18 48 -15 17 2 27 -1 25 -7 -5 -14 -56 -20 -63 -7 -4 5 -14 9 -23 9
-11 0 -8 -5 9 -14 32 -16 79 -18 79 -2 1 6 8 -1 16 -16 8 -16 17 -28 21 -28 3
0 3 3 0 7 -4 3 -2 12 4 19 7 9 7 19 0 33 -14 25 -14 42 0 19 10 -17 39 -14 39
4 0 5 -4 7 -8 4 -4 -2 -14 -1 -21 3 -9 6 -10 11 -2 15 5 4 19 -2 31 -14 20
-20 27 -41 13 -39 -21 3 -31 -3 -36 -21 -6 -25 15 -44 31 -28 7 7 12 8 12 2 0
-13 50 -12 69 0 11 7 13 5 7 -9 -5 -15 -4 -16 9 -5 13 11 13 15 3 22 -10 7
-10 9 2 5 8 -2 15 -11 14 -19 -1 -12 21 -14 135 -12 139 2 165 5 177 17 4 4
12 7 18 7 6 0 4 -5 -4 -10 -16 -10 12 -8 95 5 66 10 73 14 51 31 -11 8 -15 14
-9 14 6 0 16 -6 22 -14 7 -8 21 -13 32 -10 127 28 150 36 144 52 -4 12 -3 13
10 2 12 -10 18 -10 32 1 9 8 18 13 19 12 10 -6 64 11 64 20 0 6 3 8 6 4 9 -9
195 86 294 151 205 133 390 315 534 527 101 148 238 468 260 610 4 20 8 40 10
44 5 7 24 141 31 216 8 92 23 620 39 1407 3 103 7 191 10 196 3 5 18 8 33 6
16 -2 70 -6 121 -9 51 -3 105 -8 120 -10 15 -1 81 -6 147 -10 66 -4 143 -9
170 -11 71 -6 276 -6 301 0 12 2 45 7 75 11 82 10 244 53 339 90 349 134 570
331 727 646 72 145 129 338 151 507 6 52 6 734 0 895 -2 39 1 67 7 68 6 0 17
2 25 3 8 2 60 7 115 10 55 4 111 9 125 11 14 2 77 7 140 10 63 4 131 8 150 10
43 4 183 14 270 20 219 15 318 21 500 30 202 10 272 17 395 40 117 22 208 48
327 95 427 169 767 491 952 900 21 46 39 89 41 95 3 13 15 45 26 70 5 11 10
29 12 40 1 11 6 26 10 33 5 6 5 17 2 22 -3 6 -1 10 6 10 6 0 9 8 6 20 -3 11
-2 20 2 20 4 0 14 32 21 71 10 60 10 73 -1 80 -11 7 -10 9 4 9 12 0 17 8 18
28 0 15 2 35 4 45 3 14 -1 17 -13 13 -15 -5 -15 -4 1 8 21 16 23 30 3 23 -10
-4 -13 -1 -9 8 3 8 9 13 13 10 4 -3 7 40 6 94 0 55 -4 97 -9 94 -4 -2 -6 -17
-4 -31 2 -15 0 -37 -4 -50 -6 -15 -5 -21 1 -17 6 3 10 1 10 -4 0 -6 -5 -11
-11 -11 -8 0 -8 -5 1 -15 10 -12 10 -15 0 -15 -9 0 -9 -4 1 -17 10 -11 10 -14
2 -9 -9 5 -13 1 -14 -11 -1 -25 -7 -72 -14 -113 -18 -91 -17 -87 -3 -67 13 18
14 17 14 -2 0 -11 -3 -18 -6 -16 -13 8 -30 -13 -34 -41 -5 -32 -14 -69 -16
-69 -1 0 -3 -7 -5 -15 -2 -8 -15 -44 -28 -80 -127 -337 -364 -631 -662 -823
-120 -77 -332 -175 -415 -192 -8 -2 -35 -8 -60 -15 -161 -43 -394 -56 -660
-37 -47 4 -123 9 -170 12 -47 3 -123 7 -170 10 -47 3 -112 7 -145 10 -33 2
-96 7 -140 10 -90 6 -169 12 -265 20 -36 3 -92 8 -125 10 -161 11 -230 18
-235 22 -2 2 -5 41 -6 86 -2 95 -12 382 -19 542 -2 61 -7 169 -9 240 -3 72 -9
213 -13 315 -9 234 -10 518 -1 590 55 460 332 883 743 1136 44 28 99 58 122
68 23 10 40 23 36 29 -3 6 -1 7 4 4 6 -4 33 3 59 15 27 12 54 23 59 24 6 1 45
13 88 28 42 14 84 26 93 26 8 0 13 3 11 8 -3 4 11 8 31 8 21 1 48 4 62 7 14 3
33 6 43 6 10 1 15 6 12 11 -3 6 -2 10 4 10 5 0 11 -6 14 -12 2 -7 8 -10 12 -6
5 5 1 16 -7 25 -16 19 -14 43 4 43 6 0 5 -7 -3 -16 -12 -15 -11 -16 8 -10 27
9 39 -9 21 -31 -11 -14 -11 -15 7 -6 11 5 37 9 58 9 20 -1 37 3 37 8 0 5 6 3
14 -3 12 -10 14 -9 11 6 -2 10 -4 21 -4 26 -1 4 -5 7 -11 7 -5 0 -9 -6 -7 -12
1 -8 -7 -12 -20 -11 -13 2 -23 -3 -23 -10 -1 -6 -8 1 -16 16 -9 16 -18 27 -21
24 -2 -3 1 -16 8 -29 7 -12 -11 2 -39 32 -29 30 -52 50 -52 45 0 -6 6 -17 13
-24 10 -11 9 -12 -2 -6 -11 6 -13 4 -8 -8 4 -11 2 -14 -8 -10 -8 3 -12 10 -8
16 4 7 8 20 8 29 2 22 6 27 31 31 10 1 26 7 34 12 12 7 13 6 3 -7 -7 -8 -10
-18 -6 -21 9 -9 23 -9 22 1 -3 16 1 32 9 32 4 0 8 -9 9 -20 1 -11 -3 -20 -8
-20 -6 0 -7 -5 -3 -11 4 -8 12 -2 21 15 15 28 26 36 17 11 -4 -8 -1 -15 6 -15
6 0 9 4 6 8 -3 5 1 9 9 9 8 0 15 -4 15 -9 0 -5 5 -6 11 -2 8 4 7 9 -2 15 -10
6 -7 8 8 6 12 0 20 -4 17 -8 -2 -4 6 -5 18 -1 14 3 19 2 14 -7 -4 -6 -11 -9
-15 -6 -5 2 -17 -5 -27 -17 -13 -15 -14 -19 -4 -14 8 4 6 0 -4 -8 -11 -9 -15
-16 -10 -16 6 0 14 3 18 7 12 12 37 12 29 0 -4 -7 -1 -7 9 1 13 10 18 10 24 1
5 -8 3 -10 -7 -5 -8 4 -6 1 4 -7 10 -9 14 -18 8 -21 -5 -3 -11 -1 -13 6 -3 8
-7 6 -11 -4 -3 -9 1 -22 9 -29 8 -7 14 -8 13 -3 -4 23 2 26 16 8 8 -11 15 -14
15 -6 0 6 5 12 11 12 5 0 7 -6 3 -12 -6 -10 -5 -10 7 -1 12 10 18 10 27 1 9
-9 12 -9 12 2 0 7 3 10 7 7 3 -4 13 -1 21 6 13 10 15 9 10 -4 -5 -13 0 -16 23
-14 16 1 29 -2 29 -7 0 -6 7 -5 15 2 9 7 15 8 15 2 0 -6 8 -9 18 -7 9 1 25 -2
35 -7 9 -5 17 -5 16 -1 -3 20 2 23 17 9 8 -9 20 -14 25 -11 5 4 9 1 9 -4 0 -6
5 -11 11 -11 8 0 8 5 -1 15 -7 8 -16 13 -20 10 -5 -3 -10 -1 -12 4 -1 5 -10
11 -18 13 -8 2 -19 8 -23 13 -5 6 -6 2 -3 -8 4 -12 2 -17 -6 -14 -7 2 -12 13
-10 25 2 14 -2 21 -15 21 -43 1 -51 5 -50 23 1 10 6 17 12 17 23 -3 35 2 35
12 0 8 -4 8 -14 0 -10 -9 -16 -8 -26 4 -12 14 -15 14 -33 -2 -19 -18 -19 -17
-12 7 l8 25 -21 -25 c-12 -14 -21 -20 -22 -14 0 5 5 15 12 22 9 9 9 12 0 12
-7 0 -12 -5 -12 -11 0 -5 -4 -7 -10 -4 -6 4 -7 -1 -3 -12 5 -14 3 -16 -7 -6
-7 6 -18 9 -25 7 -6 -3 -12 2 -12 11 0 9 6 14 12 11 7 -2 18 0 26 5 9 6 2 7
-21 5 -19 -2 -39 -1 -45 2 -20 12 -266 21 -259 10 3 -4 0 -8 -5 -8 -6 0 -11 5
-11 10 0 6 -5 10 -10 10 -6 0 -10 -6 -9 -12 4 -33 -1 -41 -16 -28 -21 17 -31
5 -12 -14 8 -8 17 -12 21 -9 3 4 6 1 6 -5 0 -19 -15 -14 -39 12 -19 20 -20 24
-7 29 9 4 22 5 29 3 6 -1 9 -1 4 1 -4 3 -5 8 -2 13 3 4 -6 7 -20 6 -14 0 -25
-3 -25 -6z m240 -6 c0 -8 -19 -13 -24 -6 -3 5 1 9 9 9 8 0 15 -2 15 -3z m122
-20 c9 -5 17 -13 17 -19 1 -5 8 -10 15 -10 8 0 18 -3 21 -7 4 -3 18 -4 31 -2
30 5 30 2 2 -22 -21 -19 -21 -19 -14 1 5 14 4 17 -4 9 -6 -6 -8 -19 -4 -28 5
-13 9 -15 15 -5 13 21 53 18 72 -5 16 -20 17 -20 10 -1 -6 18 -5 18 10 7 9 -8
21 -11 26 -8 5 4 9 -2 8 -13 -1 -14 -6 -17 -17 -12 -8 4 -25 6 -37 6 -12 -1
-20 1 -18 5 3 4 -2 10 -10 13 -10 4 -12 1 -9 -11 5 -14 4 -14 -6 1 -8 12 -16
15 -23 9 -7 -5 -32 -8 -56 -7 -35 1 -45 5 -47 19 -4 25 -21 41 -44 41 -11 0
-20 3 -20 8 0 4 2 6 3 5 7 -5 37 24 32 31 -6 10 26 7 47 -5z m-387 -4 c-27
-12 -43 -12 -25 0 8 5 22 9 30 9 10 0 8 -3 -5 -9z m-117 -25 c-3 -3 -9 2 -12
12 -6 14 -5 15 5 6 7 -7 10 -15 7 -18z m142 7 c0 -4 12 -15 28 -24 15 -10 22
-18 15 -18 -6 0 -15 5 -18 10 -4 6 -10 8 -14 6 -4 -3 -12 4 -19 15 -7 11 -8
19 -2 19 5 0 10 -3 10 -8z m507 -12 c-1 -11 -4 -20 -8 -20 -4 0 -15 -3 -24 -7
-14 -5 -12 0 6 20 27 32 28 33 26 7z m-630 -9 c-1 -12 -6 -17 -16 -13 -8 3
-12 1 -8 -5 3 -5 -1 -10 -9 -10 -11 0 -9 6 8 23 28 28 27 28 25 5z m66 -28
c-20 -16 -30 -16 -38 -3 -4 6 1 7 11 3 12 -4 15 -3 10 5 -5 8 -1 10 11 5 15
-5 16 -3 6 8 -7 7 -13 17 -13 23 0 5 7 1 15 -10 12 -17 12 -20 -2 -31z m32 37
c3 -5 1 -10 -4 -10 -6 0 -11 5 -11 10 0 6 2 10 4 10 3 0 8 -4 11 -10z m-171
-10 c2 -3 -13 -5 -34 -5 -21 0 -37 2 -34 6 4 7 60 6 68 -1z m-154 -16 c0 -8
-19 -13 -24 -6 -3 5 1 9 9 9 8 0 15 -2 15 -3z m347 -25 c2 -18 1 -20 -6 -9 -5
8 -8 17 -5 21 2 4 -1 10 -6 12 -6 3 -5 4 1 3 7 -1 14 -13 16 -27z m-180 6 c0
-8 -3 -13 -5 -10 -3 3 -12 -1 -21 -7 -10 -8 -9 -4 3 10 23 26 23 26 23 7z
m251 -19 c14 5 14 3 -2 -10 -11 -9 -25 -16 -30 -16 -6 0 -5 4 3 9 9 6 10 11 2
15 -6 4 -11 13 -11 19 0 7 5 4 11 -5 5 -10 17 -15 27 -12z m-348 0 c0 -3 -4
-8 -10 -11 -5 -3 -10 -1 -10 4 0 6 5 11 10 11 6 0 10 -2 10 -4z m176 -30 c-1
-19 -3 -32 -6 -29 -8 7 -8 63 0 63 4 0 6 -15 6 -34z m84 24 c0 -5 -7 -7 -15
-4 -8 4 -15 8 -15 10 0 2 7 4 15 4 8 0 15 -4 15 -10z m37 -10 c-1 -11 -5 -20
-9 -20 -10 0 -10 4 -2 24 8 22 13 20 11 -4z m-57 -8 c0 -5 -7 -9 -15 -9 -8 0
-12 4 -9 9 3 4 9 8 15 8 5 0 9 -4 9 -8z m-247 -37 c-7 -21 -12 -19 -10 4 0 11
5 18 9 15 4 -3 5 -11 1 -19z m68 -2 c13 -16 12 -17 -3 -4 -10 7 -18 15 -18 17
0 8 8 3 21 -13z m-1517 -3670 c-2 -93 -6 -274 -9 -403 -4 -225 -8 -285 -21
-340 -3 -14 -8 -36 -11 -50 -27 -148 -116 -325 -220 -436 -81 -87 -287 -199
-458 -249 -110 -32 -183 -43 -315 -50 -58 -3 -130 -7 -160 -10 -30 -2 -95 -7
-145 -10 -102 -6 -219 -14 -283 -20 l-44 -4 6 417 c7 465 8 485 37 596 85 334
281 531 625 631 48 14 100 27 116 30 84 15 75 14 418 30 58 3 137 7 175 10 39
3 117 8 175 11 58 3 107 8 109 10 2 2 5 4 7 4 1 0 0 -75 -2 -167z m-5206
-2818 c-3 -3 -9 2 -12 12 -6 14 -5 15 5 6 7 -7 10 -15 7 -18z m-68 -209 c0 -2
-8 -10 -17 -17 -16 -13 -17 -12 -4 4 13 16 21 21 21 13z m-13 -99 c0 -8 -6
-14 -14 -14 -17 0 -17 14 0 20 6 3 12 6 13 6 0 1 1 -5 1 -12z m-14 -40 c7 4 5
-2 -3 -12 -13 -17 -13 -18 1 -13 9 4 16 1 16 -7 0 -25 -33 2 -34 27 0 13 1 17
4 10 3 -6 10 -9 16 -5z m-1 -64 c-6 -2 -10 -8 -8 -12 3 -4 -1 -8 -9 -8 -11 0
-12 4 -4 14 6 7 17 13 23 12 7 0 6 -2 -2 -6z m-2 -37 c0 -2 -7 -9 -15 -16 -13
-11 -14 -10 -9 4 5 14 24 23 24 12z m-10 -136 c-4 -3 -7 -22 -5 -43 3 -30 1
-37 -13 -36 -12 0 -13 2 -3 6 11 5 11 7 0 14 -12 7 -11 9 1 9 13 0 13 1 0 10
-11 7 -11 10 -2 10 7 0 10 4 7 10 -3 5 -8 19 -10 30 -3 17 -1 18 15 8 11 -7
15 -15 10 -18z m-5 -100 c-3 -5 -12 -10 -18 -10 -7 0 -6 4 3 10 19 12 23 12
15 0z m0 -43 c0 -19 -17 -25 -23 -8 -2 6 2 11 10 11 10 0 9 3 -2 11 -13 9 -13
10 0 6 8 -2 15 -11 15 -20z m2275 -1467 c0 -5 -2 -10 -4 -10 -3 0 -8 5 -11 10
-3 6 -1 10 4 10 6 0 11 -4 11 -10z m-80 -25 c0 -2 -9 -3 -19 -2 -11 0 -18 5
-15 9 4 6 34 0 34 -7z m-120 2 c0 -2 -10 -12 -22 -23 l-23 -19 19 23 c18 21
26 27 26 19z m35 -45 c-3 -3 -11 0 -18 7 -9 10 -8 11 6 5 10 -3 15 -9 12 -12z
m-151 -8 c3 -8 2 -12 -4 -9 -6 3 -10 10 -10 16 0 14 7 11 14 -7z m106 1 c-7
-9 -15 -13 -18 -10 -3 3 -12 -1 -21 -8 -14 -11 -14 -10 -2 5 7 10 17 16 21 13
5 -3 11 -1 15 5 3 5 9 10 12 10 3 0 0 -7 -7 -15z m-176 -10 c3 -10 -3 -19 -17
-26 -26 -12 -62 -58 -52 -67 3 -3 10 0 15 8 5 8 18 16 29 16 16 1 18 -2 11
-16 -7 -14 -4 -21 13 -33 l22 -15 -25 3 c-14 2 -29 4 -35 5 -21 5 -36 0 -30
-10 4 -6 10 -8 14 -6 4 3 13 1 20 -3 9 -6 10 -11 2 -15 -6 -4 -11 -1 -11 6 0
9 -3 9 -10 -2 -9 -13 -10 -13 -10 0 0 13 -2 13 -11 0 -9 -12 -10 -12 -5 3 4
12 2 17 -6 14 -7 -2 -12 -9 -11 -14 1 -5 -19 -9 -45 -9 -34 1 -52 7 -64 21
-15 19 -17 19 -35 3 -17 -16 -57 -18 -71 -3 -3 2 -11 0 -18 -6 -8 -7 -14 -7
-19 1 -3 5 -1 10 4 10 6 0 10 5 8 12 -1 7 4 12 12 13 26 0 23 23 -6 54 l-29
30 -14 -22 c-17 -25 -21 -57 -9 -57 5 0 9 -4 9 -10 0 -19 -17 -10 -28 15 -6
14 -17 24 -23 23 -6 -2 -13 10 -15 27 -2 16 0 25 4 20 11 -16 65 -17 59 -1 -6
14 16 16 29 4 10 -11 34 3 27 16 -3 6 3 3 14 -7 18 -16 21 -16 33 -2 9 11 16
12 25 5 6 -5 15 -7 19 -3 9 9 46 11 40 2 -2 -4 16 -6 40 -5 36 2 43 -1 38 -13
-3 -9 -1 -13 3 -8 5 4 16 1 24 -7 14 -13 19 -12 37 9 12 13 19 27 16 30 -4 3
2 3 13 -1 18 -7 18 -6 6 9 -7 9 -9 17 -3 17 5 0 13 -7 16 -15z m106 -40 c0 -5
-5 -3 -10 5 -5 8 -10 20 -10 25 0 6 5 3 10 -5 5 -8 10 -19 10 -25z m160 31 c0
-2 -7 -7 -16 -10 -8 -3 -12 -2 -9 4 6 10 25 14 25 6z m-720 -25 c10 -20 4 -51
-10 -51 -14 0 -21 32 -10 45 5 6 7 15 3 18 -3 4 -3 7 0 7 3 0 11 -9 17 -19z
m534 4 c3 -8 1 -15 -4 -15 -6 0 -10 7 -10 15 0 8 2 15 4 15 2 0 6 -7 10 -15z
m125 2 c8 -10 7 -14 -2 -14 -8 0 -14 6 -14 14 0 7 1 13 2 13 2 0 8 -6 14 -13z
m-169 -12 c-1 -5 9 -13 22 -17 22 -7 22 -7 -2 -5 -14 1 -24 8 -22 15 2 14 -24
16 -33 2 -3 -5 -14 -10 -23 -10 -12 0 -10 4 8 14 28 16 52 16 50 1z m196 -25
c0 -12 -4 -16 -9 -11 -5 5 -6 14 -3 20 10 15 12 14 12 -9z m129 10 c3 -5 1
-10 -4 -10 -6 0 -11 5 -11 10 0 6 2 10 4 10 3 0 8 -4 11 -10z m-335 -21 c0 -6
-4 -7 -10 -4 -5 3 -10 11 -10 16 0 6 5 7 10 4 6 -3 10 -11 10 -16z m175 12 c3
-5 2 -12 -3 -15 -5 -3 -9 1 -9 9 0 17 3 19 12 6z m-110 -11 c-3 -5 -12 -10
-18 -10 -7 0 -6 4 3 10 19 12 23 12 15 0z m34 -12 c-6 -10 -15 -16 -21 -12 -6
4 -8 -2 -4 -17 6 -20 5 -21 -4 -6 -13 20 -4 41 12 31 7 -5 9 -2 6 8 -4 8 0 15
7 15 10 0 11 -5 4 -19z m43 5 c-6 -3 -9 -10 -6 -15 4 -7 2 -8 -5 -4 -9 6 -9
11 0 22 6 8 15 12 18 8 3 -4 0 -9 -7 -11z m-142 -24 c0 -4 -7 -6 -15 -3 -8 4
-15 10 -15 15 0 4 7 6 15 3 8 -4 15 -10 15 -15z m39 7 c9 -11 9 -16 0 -22 -7
-4 -9 -3 -5 4 3 6 -2 15 -11 21 -10 6 -13 11 -7 11 6 0 17 -6 23 -14z m238 -3
c0 -9 -4 -10 -14 -2 -7 6 -13 12 -13 14 0 1 6 2 13 2 8 0 14 -6 14 -14z m-73
-17 c-8 -20 -21 -21 -21 -1 0 8 4 12 9 9 4 -3 8 0 8 7 0 7 2 10 5 7 3 -3 3
-13 -1 -22z m-184 -1 c0 -8 -4 -15 -10 -15 -5 0 -7 7 -4 15 4 8 8 15 10 15 2
0 4 -7 4 -15z m94 0 c-4 -8 -8 -15 -10 -15 -2 0 -4 7 -4 15 0 8 4 15 10 15 5
0 7 -7 4 -15z m-54 -14 c0 -5 -10 -13 -22 -17 -37 -12 -48 -13 -48 -2 0 6 6 8
14 5 8 -3 22 1 33 8 22 17 23 18 23 6z m96 -9 c-10 -2 -22 0 -28 6 -6 6 0 7
19 4 21 -5 23 -7 9 -10z m-176 -6 c0 -3 -4 -8 -10 -11 -5 -3 -10 -1 -10 4 0 6
5 11 10 11 6 0 10 -2 10 -4z"/>
<path d="M7469 9089 c-13 -11 -19 -18 -13 -15 7 3 17 -1 24 -9 10 -12 16 -13
26 -4 14 12 20 -2 7 -15 -18 -17 -8 -31 22 -32 28 -1 33 2 31 20 -1 11 -6 22
-12 23 -5 1 -8 -4 -7 -11 2 -6 -6 -12 -18 -13 -16 -2 -18 1 -9 12 9 10 7 20
-5 39 -10 14 -19 26 -20 26 -2 0 -13 -9 -26 -21z m24 -6 c-5 -12 -3 -14 7 -8
9 5 11 4 6 -4 -6 -9 -11 -9 -22 0 -12 10 -12 14 -2 20 18 12 18 11 11 -8z"/>
<path d="M1710 145 c-10 -12 -16 -13 -26 -4 -11 9 -14 8 -14 0 0 -7 -6 -9 -12
-6 -7 4 -2 -3 11 -14 13 -12 20 -21 16 -21 -4 0 -2 -6 4 -14 9 -10 8 -15 -4
-20 -19 -7 -19 -22 1 -30 8 -3 12 -2 9 4 -3 6 -2 10 4 10 5 0 13 -5 16 -11 5
-7 14 -4 26 7 18 16 20 16 39 -1 29 -27 77 -26 117 1 29 19 39 22 57 13 17 -9
19 -9 9 1 -6 7 -9 19 -6 26 3 8 0 14 -7 14 -6 0 -9 -4 -6 -9 7 -11 -22 -23
-35 -15 -6 3 -21 -2 -34 -10 -15 -10 -25 -12 -25 -6 0 6 -5 8 -11 4 -8 -5 -8
-9 1 -14 9 -5 9 -9 1 -14 -10 -6 -15 5 -12 26 0 4 -8 6 -19 5 -11 -1 -20 -5
-20 -10 0 -4 -5 -5 -11 -1 -8 5 -8 9 1 14 6 4 11 10 11 14 -3 22 1 27 17 22
16 -6 16 -5 0 7 -10 8 -15 17 -12 20 3 3 -3 10 -15 16 -14 8 -22 8 -26 1 -5
-8 -11 -8 -20 0 -9 7 -16 6 -25 -5z m45 -5 c6 5 16 5 25 0 11 -7 12 -10 2 -10
-7 0 -11 -4 -8 -8 9 -15 -12 -36 -26 -26 -8 5 -7 2 2 -6 16 -14 15 -17 -6 -33
-19 -14 -24 -15 -34 -2 -7 8 -9 15 -5 15 4 0 2 7 -5 15 -7 8 -9 15 -4 15 5 0
0 8 -11 17 -15 12 -16 14 -3 10 9 -3 22 1 29 9 8 10 15 12 22 5 7 -7 15 -7 22
-1z m125 -95 c-7 -8 -18 -15 -24 -15 -6 0 -2 7 8 15 25 19 32 19 16 0z m-65
-5 c3 -6 -1 -7 -9 -4 -18 7 -21 14 -7 14 6 0 13 -4 16 -10z"/>
<path d="M1713 128 c-8 -12 -10 -30 -3 -43 2 -5 6 -18 9 -31 0 -4 8 -1 16 6
14 12 14 15 0 30 -18 19 -8 35 12 19 7 -6 13 -10 14 -8 7 36 7 40 -5 30 -8 -7
-16 -7 -23 0 -7 7 -13 6 -20 -3z m16 -42 c9 -11 9 -16 -1 -22 -7 -4 -10 -4 -6
1 4 4 3 14 -3 22 -6 7 -9 13 -6 13 2 0 10 -6 16 -14z"/>
<path d="M1810 138 c0 -9 5 -20 10 -23 14 -9 12 -26 -2 -23 -7 2 -15 -1 -18
-6 -8 -16 63 -15 88 1 19 12 21 17 11 29 -6 8 -14 12 -17 9 -3 -3 -13 2 -23
11 -11 10 -19 12 -24 5 -3 -6 0 -11 8 -11 8 0 17 -7 21 -15 3 -9 12 -12 23 -9
15 5 15 4 -2 -8 -21 -16 -58 -21 -49 -7 2 5 12 5 22 2 14 -5 13 -2 -3 13 -11
10 -26 25 -32 33 -11 13 -13 13 -13 -1z"/>
<path d="M1580 119 c0 -5 -4 -8 -9 -4 -5 3 -12 1 -15 -4 -4 -5 2 -8 11 -7 15
3 33 26 19 26 -3 0 -6 -5 -6 -11z"/>
<path d="M7252 9103 c-19 -7 39 -64 60 -57 10 3 19 -2 22 -13 3 -11 17 -19 32
-20 19 -1 23 1 13 8 -11 7 -11 9 -1 9 7 0 11 4 8 9 -3 5 4 22 16 37 13 16 16
24 8 18 -8 -5 -27 -10 -42 -9 -15 0 -25 -2 -22 -6 11 -18 -24 -14 -51 6 -16
12 -36 20 -43 18z m29 -20 c13 -16 12 -17 -3 -4 -10 7 -18 15 -18 17 0 8 8 3
21 -13z m93 -34 c-3 -5 -9 -7 -14 -4 -4 3 -10 0 -12 -7 -3 -7 -7 -5 -11 6 -4
9 -3 15 2 11 5 -3 12 -1 16 5 4 6 11 8 16 4 5 -3 7 -10 3 -15z"/>
<path d="M7705 9053 c-19 -15 -19 -15 -1 -9 12 4 26 0 37 -10 11 -10 19 -13
19 -8 0 5 5 2 11 -6 7 -10 9 -11 7 -2 -2 8 -7 13 -11 13 -12 -2 -35 23 -30 32
7 12 -11 7 -32 -10z"/>
<path d="M7765 9060 c-3 -5 -1 -10 4 -10 6 0 11 5 11 10 0 6 -2 10 -4 10 -3 0
-8 -4 -11 -10z"/>
<path d="M7417 9044 c-7 -7 20 -64 29 -64 3 0 4 6 1 13 -2 6 0 21 6 32 5 11 6
17 2 13 -5 -4 -13 -3 -20 2 -7 5 -15 7 -18 4z"/>
<path d="M7790 9040 c0 -5 5 -10 10 -10 6 0 10 5 10 10 0 6 -4 10 -10 10 -5 0
-10 -4 -10 -10z"/>
<path d="M7857 9034 c-3 -3 -3 -13 0 -22 5 -11 3 -13 -7 -7 -9 5 -11 4 -6 -4
10 -16 25 -4 23 19 -1 22 -1 22 -10 14z"/>
<path d="M7791 9013 c-1 -18 19 -27 32 -13 9 10 8 12 -5 7 -9 -3 -19 -1 -22 6
-3 9 -5 9 -5 0z"/>
<path d="M7270 9000 c0 -5 5 -10 10 -10 6 0 10 5 10 10 0 6 -4 10 -10 10 -5 0
-10 -4 -10 -10z"/>
<path d="M7894 8995 c-4 -8 -9 -13 -13 -11 -4 3 -8 -5 -8 -17 -2 -18 0 -19 8
-7 20 31 30 50 24 50 -3 0 -8 -7 -11 -15z"/>
<path d="M7933 8985 c0 -8 4 -15 9 -15 4 0 8 4 8 9 0 6 -4 12 -8 15 -5 3 -9
-1 -9 -9z"/>
<path d="M7830 8980 c0 -6 7 -10 15 -10 8 0 15 2 15 4 0 2 -7 6 -15 10 -8 3
-15 1 -15 -4z"/>
<path d="M7990 8980 c0 -5 5 -10 11 -10 5 0 7 5 4 10 -3 6 -8 10 -11 10 -2 0
-4 -4 -4 -10z"/>
<path d="M7896 8962 c-10 -9 -7 -32 4 -32 5 0 7 6 4 14 -4 11 0 13 15 9 12 -3
21 -3 21 0 0 7 -38 16 -44 9z"/>
<path d="M7963 8950 c-13 -5 -23 -11 -23 -14 0 -7 40 6 46 15 6 10 6 10 -23
-1z"/>
<path d="M8035 8940 c-3 -5 -1 -10 4 -10 6 0 11 5 11 10 0 6 -2 10 -4 10 -3 0
-8 -4 -11 -10z"/>
<path d="M8106 8922 c-3 -5 1 -9 9 -9 8 0 12 4 9 9 -3 4 -7 8 -9 8 -2 0 -6 -4
-9 -8z"/>
<path d="M8180 8845 c0 -2 6 -8 13 -14 10 -8 14 -7 14 2 0 8 -6 14 -14 14 -7
0 -13 -1 -13 -2z"/>
<path d="M8225 8820 c-3 -6 1 -7 9 -4 18 7 21 14 7 14 -6 0 -13 -4 -16 -10z"/>
<path d="M8355 8749 c-4 -6 -5 -12 -2 -15 2 -3 7 2 10 11 7 17 1 20 -8 4z"/>
<path d="M9040 7701 c0 -6 4 -13 10 -16 6 -3 7 1 4 9 -7 18 -14 21 -14 7z"/>
<path d="M9053 7630 c-1 -11 1 -22 5 -24 4 -2 8 7 8 20 1 13 -1 24 -5 24 -4 0
-7 -9 -8 -20z"/>
<path d="M9056 7562 c-2 -4 -1 -14 3 -21 6 -10 10 -9 14 3 6 16 -8 32 -17 18z"/>
<path d="M9066 7511 c-7 -11 3 -41 13 -41 10 0 11 39 1 45 -5 3 -11 1 -14 -4z"/>
<path d="M9066 7451 c-4 -5 -2 -13 4 -16 8 -5 7 -11 -1 -21 -10 -12 -9 -13 4
-8 9 3 15 14 14 25 -4 24 -13 33 -21 20z"/>
<path d="M110 1475 c-11 -13 -10 -14 4 -9 9 3 16 10 16 15 0 13 -6 11 -20 -6z"/>
<path d="M120 1451 c0 -7 -5 -9 -12 -5 -7 5 -8 3 -3 -5 5 -9 10 -10 18 -2 6 6
8 14 4 18 -4 3 -7 1 -7 -6z"/>
<path d="M130 1420 c0 -5 5 -10 11 -10 5 0 7 5 4 10 -3 6 -8 10 -11 10 -2 0
-4 -4 -4 -10z"/>
<path d="M120 1395 c0 -5 5 -17 10 -25 5 -8 10 -10 10 -5 0 6 -5 17 -10 25 -5
8 -10 11 -10 5z"/>
<path d="M148 1313 c7 -3 16 -2 19 1 4 3 -2 6 -13 5 -11 0 -14 -3 -6 -6z"/>
<path d="M150 1286 c0 -2 7 -7 16 -10 8 -3 12 -2 9 4 -6 10 -25 14 -25 6z"/>
<path d="M186 1197 c3 -10 9 -15 12 -12 3 3 0 11 -7 18 -10 9 -11 8 -5 -6z"/>
<path d="M195 1160 c3 -5 8 -10 11 -10 2 0 4 5 4 10 0 6 -5 10 -11 10 -5 0 -7
-4 -4 -10z"/>
<path d="M216 1127 c3 -10 9 -15 12 -12 3 3 0 11 -7 18 -10 9 -11 8 -5 -6z"/>
<path d="M955 311 c-3 -5 -2 -12 3 -15 5 -3 9 1 9 9 0 17 -3 19 -12 6z"/>
<path d="M989 303 c-13 -16 -12 -17 4 -4 16 13 21 21 13 21 -2 0 -10 -8 -17
-17z"/>
<path d="M1017 278 c-7 -5 0 -6 17 -4 16 3 31 7 33 10 8 8 -37 2 -50 -6z"/>
<path d="M1090 261 c0 -6 4 -13 10 -16 6 -3 7 1 4 9 -7 18 -14 21 -14 7z"/>
<path d="M1116 258 c3 -5 10 -6 15 -3 13 9 11 12 -6 12 -8 0 -12 -4 -9 -9z"/>
<path d="M1073 234 c16 -20 52 -30 41 -12 -4 5 -9 7 -12 4 -3 -3 -15 2 -26 11
-21 18 -21 18 -3 -3z"/>
<path d="M1147 229 c6 -22 20 -26 20 -4 0 8 -6 16 -13 19 -7 3 -10 -2 -7 -15z"/>
<path d="M1245 220 c-3 -5 -1 -10 4 -10 6 0 11 5 11 10 0 6 -2 10 -4 10 -3 0
-8 -4 -11 -10z"/>
<path d="M1290 211 c0 -5 5 -13 10 -16 6 -3 10 -2 10 4 0 5 -4 13 -10 16 -5 3
-10 2 -10 -4z"/>
<path d="M1196 197 c3 -10 9 -15 12 -12 3 3 0 11 -7 18 -10 9 -11 8 -5 -6z"/>
<path d="M1274 198 c4 -13 0 -17 -16 -15 -17 2 -22 -4 -23 -26 -1 -15 1 -30 5
-32 4 -3 6 9 5 25 -2 25 0 30 15 25 23 -7 32 6 18 25 -8 12 -9 12 -4 -2z"/>
<path d="M1320 190 c-6 -11 -7 -20 -2 -20 6 0 12 9 15 20 3 11 3 20 1 20 -2 0
-8 -9 -14 -20z"/>
<path d="M1358 197 c11 -13 1 -40 -14 -37 -5 1 -9 -3 -10 -9 -2 -7 -1 -8 3 -1
7 15 23 2 17 -15 -4 -8 -11 -12 -17 -8 -6 3 -7 1 -3 -6 4 -6 12 -8 18 -5 8 5
9 1 5 -10 -4 -10 -3 -15 4 -11 5 4 7 15 4 26 -5 15 -2 18 12 13 17 -5 17 -5 1
6 -19 11 -13 44 6 33 6 -3 2 3 -8 15 -20 23 -36 31 -18 9z"/>
<path d="M1387 199 c7 -7 15 -10 18 -7 3 3 -2 9 -12 12 -14 6 -15 5 -6 -5z"/>
<path d="M1176 187 c3 -10 9 -15 12 -12 3 3 0 11 -7 18 -10 9 -11 8 -5 -6z"/>
<path d="M1285 159 c-5 -8 -4 -10 0 -6 5 4 15 -3 22 -15 7 -13 12 -18 13 -12
0 5 -6 18 -13 29 -12 15 -15 16 -22 4z"/>
<path d="M1390 112 c0 -6 5 -14 10 -17 6 -4 7 -11 4 -17 -4 -7 -2 -8 4 -4 7 4
12 2 12 -5 0 -7 3 -10 6 -6 4 3 -3 18 -15 33 -11 15 -21 22 -21 16z"/>
<path d="M1429 96 c14 -15 20 -30 16 -38 -6 -10 -5 -10 5 -1 10 9 10 15 2 26
-7 8 -8 18 -4 22 4 5 1 5 -5 1 -7 -4 -13 -2 -13 3 0 6 -5 11 -12 11 -6 0 -1
-11 11 -24z"/>
<path d="M1375 80 c3 -5 8 -10 11 -10 2 0 4 5 4 10 0 6 -5 10 -11 10 -5 0 -7
-4 -4 -10z"/>
</g>
</svg>
